<?xml version="1.0" encoding="utf-8"?>
<!-- Generator: Adobe Illustrator 24.0.2, SVG Export Plug-In . SVG Version: 6.00 Build 0)  -->
<svg version="1.1" id="Layer_1" xmlns="http://www.w3.org/2000/svg" xmlns:xlink="http://www.w3.org/1999/xlink" x="0px" y="0px"
	 viewBox="0 0 309.45 113.7" style="enable-background:new 0 0 309.45 113.7;" xml:space="preserve">
<style type="text/css">
	.st0{fill:#d1d3d4;}
	.st1{fill:none;}
</style>
<polygon class="st0" points="196.72,110.85 200.4,110.85 306.1,5.15 302.42,5.15 "/>
<polygon class="st0" points="183.97,110.85 187.65,110.85 293.34,5.15 289.67,5.15 "/>
<polygon class="st0" points="171.22,110.85 174.89,110.85 280.59,5.15 276.91,5.15 "/>
<polygon class="st0" points="158.46,110.85 162.14,110.85 267.84,5.15 264.16,5.15 "/>
<polygon class="st0" points="145.71,110.85 149.39,110.85 255.09,5.15 251.41,5.15 "/>
<polygon class="st0" points="69.2,110.85 72.88,110.85 178.57,5.15 174.89,5.15 "/>
<polygon class="st0" points="132.96,110.85 136.64,110.85 242.33,5.15 238.66,5.15 "/>
<polygon class="st0" points="56.44,110.85 60.12,110.85 165.82,5.15 162.14,5.15 "/>
<polygon class="st0" points="120.21,110.85 123.89,110.85 229.58,5.15 225.9,5.15 "/>
<polygon class="st0" points="43.69,110.85 47.37,110.85 153.07,5.15 149.39,5.15 "/>
<polygon class="st0" points="107.45,110.85 111.13,110.85 216.83,5.15 213.15,5.15 "/>
<polygon class="st0" points="30.94,110.85 34.62,110.85 140.32,5.15 136.64,5.15 "/>
<polygon class="st0" points="94.7,110.85 98.38,110.85 204.08,5.15 200.4,5.15 "/>
<polygon class="st0" points="18.19,110.85 21.87,110.85 127.56,5.15 123.88,5.15 "/>
<polygon class="st0" points="81.95,110.85 85.63,110.85 191.33,5.15 187.65,5.15 "/>
<polygon class="st0" points="5.44,110.85 9.11,110.85 114.81,5.15 111.13,5.15 "/>
<rect x="5.44" y="5.15" class="st1" width="300.66" height="105.7"/>
</svg>
