<svg xmlns="http://www.w3.org/2000/svg" width="527" height="185.266" viewBox="0 0 527 185.266">
    <defs>
        <style>
            .cls-1{fill:#d1d3d4}
        </style>
    </defs>
    <g id="dijagonale" transform="translate(-28.868 -24.293)">
        <path id="Path_106" data-name="Path 106" class="cls-1" d="M364.152 209.559h6.45L555.868 24.293h-6.45z"/>
        <path id="Path_107" data-name="Path 107" class="cls-1" d="M341.8 209.559h6.45L533.5 24.293h-6.45z"/>
        <path id="Path_108" data-name="Path 108" class="cls-1" d="M319.439 209.559h6.45L511.155 24.293H504.7z"/>
        <path id="Path_109" data-name="Path 109" class="cls-1" d="M297.091 209.559h6.45L488.807 24.293h-6.45z"/>
        <path id="Path_110" data-name="Path 110" class="cls-1" d="M274.744 209.559h6.45L466.46 24.293h-6.45z"/>
        <path id="Path_111" data-name="Path 111" class="cls-1" d="M140.641 209.559h6.433L332.339 24.293h-6.45z"/>
        <path id="Path_112" data-name="Path 112" class="cls-1" d="M252.4 209.559h6.45L444.095 24.293h-6.45z"/>
        <path id="Path_113" data-name="Path 113" class="cls-1" d="M118.276 209.559h6.45L309.992 24.293h-6.45z"/>
        <path id="Path_114" data-name="Path 114" class="cls-1" d="M230.049 209.559h6.433L421.747 24.293H415.3z"/>
        <path id="Path_115" data-name="Path 115" class="cls-1" d="M95.928 209.559h6.45L287.644 24.293h-6.45z"/>
        <path id="Path_116" data-name="Path 116" class="cls-1" d="M207.684 209.559h6.45L399.4 24.293h-6.45z"/>
        <path id="Path_117" data-name="Path 117" class="cls-1" d="M73.581 209.559h6.45L265.3 24.293h-6.45z"/>
        <path id="Path_118" data-name="Path 118" class="cls-1" d="M185.336 209.559h6.45L377.052 24.293H370.6z"/>
        <path id="Path_119" data-name="Path 119" class="cls-1" d="M51.233 209.559h6.45L242.931 24.293h-6.45z"/>
        <path id="Path_120" data-name="Path 120" class="cls-1" d="M162.988 209.559h6.45L354.687 24.293h-6.433z"/>
        <path id="Path_121" data-name="Path 121" class="cls-1" d="M28.868 209.559h6.45L220.584 24.293h-6.45z"/>
    </g>
</svg>
